<svg width="48" height="48" viewBox="0 0 48 48" xmlns="http://www.w3.org/2000/svg"><path d="M36 0c6.627 0 12 5.373 12 12v24c0 6.627-5.373 12-12 12H12C5.373 48 0 42.627 0 36V12C0 5.373 5.373 0 12 0h24zm-3.111 10H15.11A3.111 3.111 0 0 0 12 13.111V34.89A3.111 3.111 0 0 0 15.111 38H32.89A3.111 3.111 0 0 0 36 34.889V13.11A3.111 3.111 0 0 0 32.889 10zm-8.917 22.556a.778.778 0 1 1 0 1.555h-7.444l-.106-.007a.778.778 0 0 1 .106-1.548zm7.5-3.112a.778.778 0 0 1 0 1.556H16.528l-.106-.007a.778.778 0 0 1 .106-1.549zm0-3.11a.778.778 0 0 1 0 1.555H16.528l-.106-.007a.778.778 0 0 1 .106-1.549zm0-3.112a.778.778 0 0 1 0 1.556H16.528l-.106-.007a.778.778 0 0 1 .106-1.549zm-8.25-9.333c.43 0 .778.348.778.778v6.222l-.007.105a.778.778 0 0 1-.77.673h-6.695l-.106-.007a.778.778 0 0 1-.672-.771v-6.222l.007-.106a.778.778 0 0 1 .77-.672zm8.25 6.222a.778.778 0 0 1 0 1.556h-5.194l-.106-.007a.778.778 0 0 1 .106-1.549zm0-3.111a.778.778 0 0 1 0 1.556h-5.194l-.106-.008A.778.778 0 0 1 26.278 17zm0-3.111a.778.778 0 0 1 0 1.555h-5.194l-.106-.007a.778.778 0 0 1 .106-1.548z" fill="#DDD" fill-rule="evenodd"/></svg>
