<svg width="32" height="36" viewBox="0 0 32 36" xmlns="http://www.w3.org/2000/svg"><path d="M28 0a4 4 0 0 1 4 4v28a4 4 0 0 1-4 4H4a4 4 0 0 1-4-4V4a4 4 0 0 1 4-4h24zM16 29H6a1 1 0 0 0-.117 1.993L6 31h10a1 1 0 0 0 0-2zm10-4H6a1 1 0 0 0-.117 1.993L6 27h20a1 1 0 0 0 0-2zm0-4H6a1 1 0 0 0-.117 1.993L6 23h20a1 1 0 0 0 0-2zm0-4H6a1 1 0 0 0-.117 1.993L6 19h20a1 1 0 0 0 0-2zM15 5H6a1 1 0 0 0-.993.883L5 6v8a1 1 0 0 0 .883.993L6 15h9a1 1 0 0 0 .993-.883L16 14V6a1 1 0 0 0-1-1zm11 8h-7a1 1 0 0 0 0 2h7a1 1 0 0 0 0-2zm0-4h-7a1 1 0 0 0-.117 1.993L19 11h7a1 1 0 0 0 0-2zm0-4h-7a1 1 0 0 0-.117 1.993L19 7h7a1 1 0 0 0 0-2z" fill="#7D7D7D" fill-rule="evenodd"/></svg>
